<?xml version="1.0" encoding="UTF-8" standalone="no"?>
<!DOCTYPE svg PUBLIC "-//W3C//DTD SVG 1.1//EN" "http://www.w3.org/Graphics/SVG/1.1/DTD/svg11.dtd">
<!-- Generated by graphviz version 2.40.1 (20161225.0304)
 -->
<!-- Title: G Pages: 1 -->
<svg width="714pt" height="402pt" viewBox="0.00 0.00 713.93 402.00" xmlns="http://www.w3.org/2000/svg" xmlns:xlink="http://www.w3.org/1999/xlink">
<g id="graph0" class="graph" transform="scale(1 1) rotate(0) translate(4 398)">
<title>G</title>
<polygon fill="#ffffff" stroke="transparent" points="-4,4 -4,-398 709.9278,-398 709.9278,4 -4,4"/>
<!-- 0 -->
<g id="node1" class="node">
<title>0</title>
<polygon fill="none" stroke="#000000" points="211.8917,-394 138.0361,-394 138.0361,-344 211.8917,-344 211.8917,-394"/>
<text text-anchor="start" x="169.7139" y="-378.4" font-family="Times,serif" font-size="14.00" fill="#000000"> 0</text>
<text text-anchor="start" x="150.4639" y="-364.4" font-family="Times,serif" font-size="14.00" fill="#777777"> 0b0000 </text>
<text text-anchor="start" x="146" y="-350.4" font-family="Times,serif" font-size="14.00" fill="#ff0000">∑A(0, 0] </text>
<text text-anchor="start" x="200.4278" y="-350.4" font-family="Times,serif" font-size="14.00" fill="#000000"> </text>
</g>
<!-- 1 -->
<g id="node2" class="node">
<title>1</title>
<polygon fill="none" stroke="#000000" points="73.8917,-308 .0361,-308 .0361,-258 73.8917,-258 73.8917,-308"/>
<text text-anchor="start" x="31.7139" y="-292.4" font-family="Times,serif" font-size="14.00" fill="#000000"> 1</text>
<text text-anchor="start" x="12.4639" y="-278.4" font-family="Times,serif" font-size="14.00" fill="#777777"> 0b0001 </text>
<text text-anchor="start" x="8" y="-264.4" font-family="Times,serif" font-size="14.00" fill="#ff0000">∑A(0, 1] </text>
<text text-anchor="start" x="62.4278" y="-264.4" font-family="Times,serif" font-size="14.00" fill="#000000"> </text>
</g>
<!-- 0&#45;&gt;1 -->
<g id="edge1" class="edge">
<title>0-&gt;1</title>
<path fill="none" stroke="#000000" d="M137.9824,-345.9536C120.9669,-335.3497 100.6134,-322.6656 82.6492,-311.4706"/>
<polygon fill="#000000" stroke="#000000" points="84.3855,-308.4286 74.0474,-306.11 80.6832,-314.3694 84.3855,-308.4286"/>
</g>
<!-- 2 -->
<g id="node3" class="node">
<title>2</title>
<polygon fill="none" stroke="#000000" points="165.8917,-308 92.0361,-308 92.0361,-258 165.8917,-258 165.8917,-308"/>
<text text-anchor="start" x="123.7139" y="-292.4" font-family="Times,serif" font-size="14.00" fill="#000000"> 2</text>
<text text-anchor="start" x="104.4639" y="-278.4" font-family="Times,serif" font-size="14.00" fill="#777777"> 0b0010 </text>
<text text-anchor="start" x="100" y="-264.4" font-family="Times,serif" font-size="14.00" fill="#ff0000">∑A(0, 2] </text>
<text text-anchor="start" x="154.4278" y="-264.4" font-family="Times,serif" font-size="14.00" fill="#000000"> </text>
</g>
<!-- 0&#45;&gt;2 -->
<g id="edge2" class="edge">
<title>0-&gt;2</title>
<path fill="none" stroke="#000000" d="M161.4112,-343.6623C156.9659,-335.3516 151.9508,-325.9756 147.2164,-317.1242"/>
<polygon fill="#000000" stroke="#000000" points="150.2226,-315.3237 142.4198,-308.1566 144.0501,-318.6253 150.2226,-315.3237"/>
</g>
<!-- 4 -->
<g id="node5" class="node">
<title>4</title>
<polygon fill="none" stroke="#000000" points="257.8917,-308 184.0361,-308 184.0361,-258 257.8917,-258 257.8917,-308"/>
<text text-anchor="start" x="215.7139" y="-292.4" font-family="Times,serif" font-size="14.00" fill="#000000"> 4</text>
<text text-anchor="start" x="196.4639" y="-278.4" font-family="Times,serif" font-size="14.00" fill="#777777"> 0b0100 </text>
<text text-anchor="start" x="192" y="-264.4" font-family="Times,serif" font-size="14.00" fill="#ff0000">∑A(0, 4] </text>
<text text-anchor="start" x="246.4278" y="-264.4" font-family="Times,serif" font-size="14.00" fill="#000000"> </text>
</g>
<!-- 0&#45;&gt;4 -->
<g id="edge3" class="edge">
<title>0-&gt;4</title>
<path fill="none" stroke="#000000" d="M188.5166,-343.6623C192.9619,-335.3516 197.977,-325.9756 202.7114,-317.1242"/>
<polygon fill="#000000" stroke="#000000" points="205.8777,-318.6253 207.508,-308.1566 199.7052,-315.3237 205.8777,-318.6253"/>
</g>
<!-- 8 -->
<g id="node9" class="node">
<title>8</title>
<polygon fill="none" stroke="#000000" points="442.8917,-308 369.0361,-308 369.0361,-258 442.8917,-258 442.8917,-308"/>
<text text-anchor="start" x="400.7139" y="-292.4" font-family="Times,serif" font-size="14.00" fill="#000000"> 8</text>
<text text-anchor="start" x="381.4639" y="-278.4" font-family="Times,serif" font-size="14.00" fill="#777777"> 0b1000 </text>
<text text-anchor="start" x="377" y="-264.4" font-family="Times,serif" font-size="14.00" fill="#ff0000">∑A(0, 8] </text>
<text text-anchor="start" x="431.4278" y="-264.4" font-family="Times,serif" font-size="14.00" fill="#000000"> </text>
</g>
<!-- 0&#45;&gt;8 -->
<g id="edge4" class="edge">
<title>0-&gt;8</title>
<path fill="none" stroke="#000000" d="M212.078,-355.1826C252.1542,-340.2625 316.0698,-316.4671 359.4668,-300.3106"/>
<polygon fill="#000000" stroke="#000000" points="360.7914,-303.5522 368.9419,-296.7831 358.3491,-296.9921 360.7914,-303.5522"/>
</g>
<!-- 3 -->
<g id="node4" class="node">
<title>3</title>
<polygon fill="none" stroke="#000000" points="119.8917,-222 46.0361,-222 46.0361,-172 119.8917,-172 119.8917,-222"/>
<text text-anchor="start" x="77.7139" y="-206.4" font-family="Times,serif" font-size="14.00" fill="#000000"> 3</text>
<text text-anchor="start" x="58.4639" y="-192.4" font-family="Times,serif" font-size="14.00" fill="#777777"> 0b0011 </text>
<text text-anchor="start" x="54" y="-178.4" font-family="Times,serif" font-size="14.00" fill="#ff0000">∑A(2, 3] </text>
<text text-anchor="start" x="108.4278" y="-178.4" font-family="Times,serif" font-size="14.00" fill="#000000"> </text>
</g>
<!-- 2&#45;&gt;3 -->
<g id="edge5" class="edge">
<title>2-&gt;3</title>
<path fill="none" stroke="#000000" d="M115.4112,-257.6623C110.9659,-249.3516 105.9508,-239.9756 101.2164,-231.1242"/>
<polygon fill="#000000" stroke="#000000" points="104.2226,-229.3237 96.4198,-222.1566 98.0501,-232.6253 104.2226,-229.3237"/>
</g>
<!-- 5 -->
<g id="node6" class="node">
<title>5</title>
<polygon fill="none" stroke="#000000" points="211.8917,-222 138.0361,-222 138.0361,-172 211.8917,-172 211.8917,-222"/>
<text text-anchor="start" x="169.7139" y="-206.4" font-family="Times,serif" font-size="14.00" fill="#000000"> 5</text>
<text text-anchor="start" x="150.4639" y="-192.4" font-family="Times,serif" font-size="14.00" fill="#777777"> 0b0101 </text>
<text text-anchor="start" x="146" y="-178.4" font-family="Times,serif" font-size="14.00" fill="#ff0000">∑A(4, 5] </text>
<text text-anchor="start" x="200.4278" y="-178.4" font-family="Times,serif" font-size="14.00" fill="#000000"> </text>
</g>
<!-- 4&#45;&gt;5 -->
<g id="edge6" class="edge">
<title>4-&gt;5</title>
<path fill="none" stroke="#000000" d="M207.4112,-257.6623C202.9659,-249.3516 197.9508,-239.9756 193.2164,-231.1242"/>
<polygon fill="#000000" stroke="#000000" points="196.2226,-229.3237 188.4198,-222.1566 190.0501,-232.6253 196.2226,-229.3237"/>
</g>
<!-- 6 -->
<g id="node7" class="node">
<title>6</title>
<polygon fill="none" stroke="#000000" points="303.8917,-222 230.0361,-222 230.0361,-172 303.8917,-172 303.8917,-222"/>
<text text-anchor="start" x="261.7139" y="-206.4" font-family="Times,serif" font-size="14.00" fill="#000000"> 6</text>
<text text-anchor="start" x="242.4639" y="-192.4" font-family="Times,serif" font-size="14.00" fill="#777777"> 0b0110 </text>
<text text-anchor="start" x="238" y="-178.4" font-family="Times,serif" font-size="14.00" fill="#ff0000">∑A(4, 6] </text>
<text text-anchor="start" x="292.4278" y="-178.4" font-family="Times,serif" font-size="14.00" fill="#000000"> </text>
</g>
<!-- 4&#45;&gt;6 -->
<g id="edge7" class="edge">
<title>4-&gt;6</title>
<path fill="none" stroke="#000000" d="M234.5166,-257.6623C238.9619,-249.3516 243.977,-239.9756 248.7114,-231.1242"/>
<polygon fill="#000000" stroke="#000000" points="251.8777,-232.6253 253.508,-222.1566 245.7052,-229.3237 251.8777,-232.6253"/>
</g>
<!-- 7 -->
<g id="node8" class="node">
<title>7</title>
<polygon fill="none" stroke="#000000" points="303.8917,-136 230.0361,-136 230.0361,-86 303.8917,-86 303.8917,-136"/>
<text text-anchor="start" x="261.7139" y="-120.4" font-family="Times,serif" font-size="14.00" fill="#000000"> 7</text>
<text text-anchor="start" x="242.4639" y="-106.4" font-family="Times,serif" font-size="14.00" fill="#777777"> 0b0111 </text>
<text text-anchor="start" x="238" y="-92.4" font-family="Times,serif" font-size="14.00" fill="#ff0000">∑A(6, 7] </text>
<text text-anchor="start" x="292.4278" y="-92.4" font-family="Times,serif" font-size="14.00" fill="#000000"> </text>
</g>
<!-- 6&#45;&gt;7 -->
<g id="edge8" class="edge">
<title>6-&gt;7</title>
<path fill="none" stroke="#000000" d="M266.9639,-171.6623C266.9639,-163.7016 266.9639,-154.7633 266.9639,-146.2449"/>
<polygon fill="#000000" stroke="#000000" points="270.464,-146.1566 266.9639,-136.1566 263.464,-146.1566 270.464,-146.1566"/>
</g>
<!-- 9 -->
<g id="node10" class="node">
<title>9</title>
<polygon fill="none" stroke="#000000" points="395.8917,-222 322.0361,-222 322.0361,-172 395.8917,-172 395.8917,-222"/>
<text text-anchor="start" x="353.7139" y="-206.4" font-family="Times,serif" font-size="14.00" fill="#000000"> 9</text>
<text text-anchor="start" x="334.4639" y="-192.4" font-family="Times,serif" font-size="14.00" fill="#777777"> 0b1001 </text>
<text text-anchor="start" x="330" y="-178.4" font-family="Times,serif" font-size="14.00" fill="#ff0000">∑A(8, 9] </text>
<text text-anchor="start" x="384.4278" y="-178.4" font-family="Times,serif" font-size="14.00" fill="#000000"> </text>
</g>
<!-- 8&#45;&gt;9 -->
<g id="edge9" class="edge">
<title>8-&gt;9</title>
<path fill="none" stroke="#000000" d="M392.1166,-257.6623C387.5747,-249.3516 382.4506,-239.9756 377.6131,-231.1242"/>
<polygon fill="#000000" stroke="#000000" points="380.5793,-229.2532 372.7123,-222.1566 374.4367,-232.6102 380.5793,-229.2532"/>
</g>
<!-- 10 -->
<g id="node11" class="node">
<title>10</title>
<polygon fill="none" stroke="#000000" points="494.3917,-222 413.5361,-222 413.5361,-172 494.3917,-172 494.3917,-222"/>
<text text-anchor="start" x="445.2139" y="-206.4" font-family="Times,serif" font-size="14.00" fill="#000000"> 10</text>
<text text-anchor="start" x="429.4639" y="-192.4" font-family="Times,serif" font-size="14.00" fill="#777777"> 0b1010 </text>
<text text-anchor="start" x="421.5" y="-178.4" font-family="Times,serif" font-size="14.00" fill="#ff0000">∑A(8, 10] </text>
<text text-anchor="start" x="482.9278" y="-178.4" font-family="Times,serif" font-size="14.00" fill="#000000"> </text>
</g>
<!-- 8&#45;&gt;10 -->
<g id="edge10" class="edge">
<title>8-&gt;10</title>
<path fill="none" stroke="#000000" d="M420.1059,-257.6623C424.7444,-249.3516 429.9775,-239.9756 434.9179,-231.1242"/>
<polygon fill="#000000" stroke="#000000" points="438.1055,-232.5944 439.923,-222.1566 431.9931,-229.1828 438.1055,-232.5944"/>
</g>
<!-- 12 -->
<g id="node13" class="node">
<title>12</title>
<polygon fill="none" stroke="#000000" points="596.3917,-222 515.5361,-222 515.5361,-172 596.3917,-172 596.3917,-222"/>
<text text-anchor="start" x="547.2139" y="-206.4" font-family="Times,serif" font-size="14.00" fill="#000000"> 12</text>
<text text-anchor="start" x="531.4639" y="-192.4" font-family="Times,serif" font-size="14.00" fill="#777777"> 0b1100 </text>
<text text-anchor="start" x="523.5" y="-178.4" font-family="Times,serif" font-size="14.00" fill="#ff0000">∑A(8, 12] </text>
<text text-anchor="start" x="584.9278" y="-178.4" font-family="Times,serif" font-size="14.00" fill="#000000"> </text>
</g>
<!-- 8&#45;&gt;12 -->
<g id="edge11" class="edge">
<title>8-&gt;12</title>
<path fill="none" stroke="#000000" d="M443.0426,-261.7416C462.2483,-250.7303 485.9562,-237.1378 506.6825,-225.2546"/>
<polygon fill="#000000" stroke="#000000" points="508.4265,-228.2893 515.3609,-220.279 504.9447,-222.2166 508.4265,-228.2893"/>
</g>
<!-- 11 -->
<g id="node12" class="node">
<title>11</title>
<polygon fill="none" stroke="#000000" points="493.8917,-136 406.0361,-136 406.0361,-86 493.8917,-86 493.8917,-136"/>
<text text-anchor="start" x="441.2139" y="-120.4" font-family="Times,serif" font-size="14.00" fill="#000000"> 11</text>
<text text-anchor="start" x="425.4639" y="-106.4" font-family="Times,serif" font-size="14.00" fill="#777777"> 0b1011 </text>
<text text-anchor="start" x="414" y="-92.4" font-family="Times,serif" font-size="14.00" fill="#ff0000">∑A(10, 11] </text>
<text text-anchor="start" x="482.4278" y="-92.4" font-family="Times,serif" font-size="14.00" fill="#000000"> </text>
</g>
<!-- 10&#45;&gt;11 -->
<g id="edge12" class="edge">
<title>10-&gt;11</title>
<path fill="none" stroke="#000000" d="M452.7854,-171.6623C452.4151,-163.7016 451.9994,-154.7633 451.6032,-146.2449"/>
<polygon fill="#000000" stroke="#000000" points="455.0949,-145.9831 451.134,-136.1566 448.1025,-146.3084 455.0949,-145.9831"/>
</g>
<!-- 13 -->
<g id="node14" class="node">
<title>13</title>
<polygon fill="none" stroke="#000000" points="599.8917,-136 512.0361,-136 512.0361,-86 599.8917,-86 599.8917,-136"/>
<text text-anchor="start" x="547.2139" y="-120.4" font-family="Times,serif" font-size="14.00" fill="#000000"> 13</text>
<text text-anchor="start" x="531.4639" y="-106.4" font-family="Times,serif" font-size="14.00" fill="#777777"> 0b1101 </text>
<text text-anchor="start" x="520" y="-92.4" font-family="Times,serif" font-size="14.00" fill="#ff0000">∑A(12, 13] </text>
<text text-anchor="start" x="588.4278" y="-92.4" font-family="Times,serif" font-size="14.00" fill="#000000"> </text>
</g>
<!-- 12&#45;&gt;13 -->
<g id="edge13" class="edge">
<title>12-&gt;13</title>
<path fill="none" stroke="#000000" d="M555.9639,-171.6623C555.9639,-163.7016 555.9639,-154.7633 555.9639,-146.2449"/>
<polygon fill="#000000" stroke="#000000" points="559.464,-146.1566 555.9639,-136.1566 552.464,-146.1566 559.464,-146.1566"/>
</g>
<!-- 14 -->
<g id="node15" class="node">
<title>14</title>
<polygon fill="none" stroke="#000000" points="705.8917,-136 618.0361,-136 618.0361,-86 705.8917,-86 705.8917,-136"/>
<text text-anchor="start" x="653.2139" y="-120.4" font-family="Times,serif" font-size="14.00" fill="#000000"> 14</text>
<text text-anchor="start" x="637.4639" y="-106.4" font-family="Times,serif" font-size="14.00" fill="#777777"> 0b1110 </text>
<text text-anchor="start" x="626" y="-92.4" font-family="Times,serif" font-size="14.00" fill="#ff0000">∑A(12, 14] </text>
<text text-anchor="start" x="694.4278" y="-92.4" font-family="Times,serif" font-size="14.00" fill="#000000"> </text>
</g>
<!-- 12&#45;&gt;14 -->
<g id="edge14" class="edge">
<title>12-&gt;14</title>
<path fill="none" stroke="#000000" d="M586.9084,-171.8941C598.1294,-162.7902 610.9557,-152.384 622.7926,-142.7805"/>
<polygon fill="#000000" stroke="#000000" points="625.2369,-145.3045 630.7974,-136.286 620.8266,-139.8685 625.2369,-145.3045"/>
</g>
<!-- 15 -->
<g id="node16" class="node">
<title>15</title>
<polygon fill="none" stroke="#000000" points="705.8917,-50 618.0361,-50 618.0361,0 705.8917,0 705.8917,-50"/>
<text text-anchor="start" x="653.2139" y="-34.4" font-family="Times,serif" font-size="14.00" fill="#000000"> 15</text>
<text text-anchor="start" x="637.4639" y="-20.4" font-family="Times,serif" font-size="14.00" fill="#777777"> 0b1111 </text>
<text text-anchor="start" x="626" y="-6.4" font-family="Times,serif" font-size="14.00" fill="#ff0000">∑A(14, 15] </text>
<text text-anchor="start" x="694.4278" y="-6.4" font-family="Times,serif" font-size="14.00" fill="#000000"> </text>
</g>
<!-- 14&#45;&gt;15 -->
<g id="edge15" class="edge">
<title>14-&gt;15</title>
<path fill="none" stroke="#000000" d="M661.9639,-85.6623C661.9639,-77.7016 661.9639,-68.7633 661.9639,-60.2449"/>
<polygon fill="#000000" stroke="#000000" points="665.464,-60.1566 661.9639,-50.1566 658.464,-60.1566 665.464,-60.1566"/>
</g>
</g>
</svg>